# xmcd CD database file
# Copyright (C) 1997 Ti Kan
#
# Track frame offsets:
#  182
#  17627
#  35377
#  50865
#  71482
#  85672
#  105507
#  125340
#  142245
#  158957
#  179432
#  196807
#  204857
#
# Disc length: 2903 seconds
#
# Revision: 1
# Processed by: cddbd v1.4b41PL1 Copyright (c) Steve Scherf et al.
# Submitted via: CDWizzard Release:4.24
#
DISCID=b00b550d
DTITLE=Scud Mountain Boys - The Early Year-Dance the Night Away
DYEAR=1900
DGENRE=
TTITLE0=Freight of Fire
TTITLE1=One Hand
TTITLE2=Letter to Bread
TTITLE3=Television
TTITLE4=(She Took His) Picture
TTITLE5=Where's the Playground, Susie
TTITLE6=Combine
TTITLE7=Blood and Bones
TTITLE8=Silo
TTITLE9=Sangre de Cristo
TTITLE10=Kneeling
TTITLE11=Fiery Coffin
TTITLE12=Helen
EXTD=
EXTT0=
EXTT1=
EXTT2=
EXTT3=
EXTT4=
EXTT5=
EXTT6=
EXTT7=
EXTT8=
EXTT9=
EXTT10=
EXTT11=
EXTT12=
PLAYORDER=
